<svg width="1200" height="630" viewBox="0 0 1200 630" fill="none" xmlns="http://www.w3.org/2000/svg">
  <rect width="1200" height="630" fill="#07070A"/>
  <radialGradient id="a" cx="0" cy="0" r="1" gradientUnits="userSpaceOnUse" gradientTransform="translate(310 170) rotate(45) scale(760)">
    <stop stop-color="#6EE7F9" stop-opacity=".55"/>
    <stop offset=".42" stop-color="#D946EF" stop-opacity=".18"/>
    <stop offset="1" stop-color="#07070A" stop-opacity="0"/>
  </radialGradient>
  <rect width="1200" height="630" fill="url(#a)"/>
  <rect x="708" y="85" width="310" height="430" rx="34" fill="#11121A" stroke="#FFFFFF" stroke-opacity=".14"/>
  <rect x="735" y="118" width="256" height="342" rx="22" fill="#202331"/>
  <circle cx="810" cy="245" r="82" fill="#E5F3FF" fill-opacity=".9"/>
  <circle cx="896" cy="288" r="118" fill="#F472B6" fill-opacity=".09"/>
  <path d="M735 378C783 326 838 330 884 382C920 344 955 350 991 392V460H735V378Z" fill="#83F5C8" fill-opacity=".75"/>
  <rect x="735" y="118" width="256" height="342" rx="22" fill="#FFFFFF" fill-opacity=".05"/>
  <text x="112" y="205" fill="white" font-family="Inter, Arial, sans-serif" font-size="82" font-weight="800">LowkeyPic</text>
  <text x="118" y="286" fill="#E9E9F1" font-family="Inter, Arial, sans-serif" font-size="42" font-weight="600">Two photos. One secret layer.</text>
  <text x="120" y="352" fill="#AEB0C0" font-family="Inter, Arial, sans-serif" font-size="30" font-weight="500">No upload. No login.</text>
  <rect x="120" y="420" width="330" height="62" rx="31" fill="#FFFFFF" fill-opacity=".1" stroke="#FFFFFF" stroke-opacity=".2"/>
  <text x="156" y="461" fill="#FFFFFF" font-family="Inter, Arial, sans-serif" font-size="24" font-weight="700">Make it lowkey</text>
</svg>
